<?xml version="1.0" encoding="utf-8"?>
<!-- Generator: Adobe Illustrator 18.0.0, SVG Export Plug-In . SVG Version: 6.00 Build 0)  -->
<!DOCTYPE svg PUBLIC "-//W3C//DTD SVG 1.1//EN" "http://www.w3.org/Graphics/SVG/1.1/DTD/svg11.dtd">
<svg version="1.1" id="Layer_1" xmlns="http://www.w3.org/2000/svg" xmlns:xlink="http://www.w3.org/1999/xlink" x="0px" y="0px"
	 viewBox="23.2 368.8 565.8 54.4" enable-background="new 23.2 368.8 565.8 54.4" xml:space="preserve">
<g>
	<g>
		<path fill="#606060" d="M98.6,396l-15.1-27.2H29c-3.2,0-5.8,2.6-5.8,5.8v42.7c0,3.2,2.6,5.8,5.8,5.8h54.6L98.6,396z"/>
		<path fill="#BB0E3D" d="M97.1,371.7c-1.1-1.8-3-2.8-5-2.8h-4.5l15.3,27.2l-15.3,27.2h4.5c2.1,0,4-1.1,5-2.8l13.6-24.3L97.1,371.7z
			"/>
	</g>
	<g>
		<rect x="55.4" y="383.9" fill="#FFFFFF" width="4" height="24.2"/>
		<polygon fill="#FFFFFF" points="47.3,383.9 47.3,401.6 36.2,383.9 32.2,383.9 32.2,408.1 36.2,408.1 36.2,390.4 47.3,408.1 
			51.3,408.1 51.3,383.9 		"/>
		<polygon fill="#FFFFFF" points="78.5,383.9 78.5,394 67.4,394 67.4,383.9 63.4,383.9 63.4,408.1 67.4,408.1 67.4,398 78.5,398 
			78.5,408.1 82.5,408.1 82.5,383.9 		"/>
	</g>
</g>
<g>
	<g>
		<path fill="#BB0E3D" d="M131.7,376.9h2.5v11.3h-2.5l-5.4-7.1v7.1h-2.5v-11.3h2.4l5.5,7.2V376.9z"/>
		<path fill="#BB0E3D" d="M145,388.1l-1-2.4h-4.7l-1,2.4h-2.7l4.9-11.3h2.4l4.9,11.3L145,388.1L145,388.1z M141.6,380.2l-1.4,3.3
			h2.8L141.6,380.2z"/>
		<path fill="#BB0E3D" d="M152.9,379v9.1h-2.5V379h-3.2v-2.2h8.9v2.2H152.9z"/>
		<path fill="#BB0E3D" d="M158,376.9h2.5v11.3H158V376.9z"/>
		<path fill="#BB0E3D" d="M172.7,386.6c-1.1,1.1-2.5,1.7-4.2,1.7s-3.1-0.6-4.2-1.7c-1.1-1.1-1.7-2.5-1.7-4.1s0.6-3,1.7-4.1
			c1.1-1.1,2.5-1.7,4.2-1.7s3.1,0.6,4.2,1.7c1.1,1.1,1.7,2.5,1.7,4.1S173.9,385.5,172.7,386.6z M171.9,382.4c0-1-0.3-1.9-1-2.6
			c-0.6-0.7-1.4-1.1-2.4-1.1c-0.9,0-1.7,0.4-2.4,1.1c-0.6,0.7-1,1.6-1,2.6c0,1,0.3,1.9,1,2.6c0.6,0.7,1.4,1.1,2.4,1.1
			c0.9,0,1.7-0.4,2.4-1.1C171.5,384.3,171.9,383.4,171.9,382.4z"/>
		<path fill="#BB0E3D" d="M184.4,376.9h2.5v11.3h-2.5l-5.4-7.1v7.1h-2.5v-11.3h2.4l5.5,7.2V376.9z"/>
		<path fill="#BB0E3D" d="M197.7,388.1l-1-2.4H192l-1,2.4h-2.7l4.9-11.3h2.4l4.9,11.3L197.7,388.1L197.7,388.1z M194.3,380.2
			l-1.4,3.3h2.8L194.3,380.2z"/>
		<path fill="#BB0E3D" d="M201.7,388.1v-11.3h2.5v9h4.8v2.2L201.7,388.1L201.7,388.1z"/>
		<path fill="#BB0E3D" d="M220.3,385.9c1.2,0,2.2-0.5,3-1.5l1.6,1.7c-1.3,1.4-2.8,2.2-4.5,2.2c-1.7,0-3.2-0.5-4.3-1.6
			c-1.1-1.1-1.7-2.5-1.7-4.1c0-1.7,0.6-3.1,1.7-4.2c1.1-1.1,2.5-1.7,4.2-1.7c1.8,0,3.4,0.7,4.6,2.1l-1.6,1.8c-0.8-1-1.8-1.5-3-1.5
			c-0.9,0-1.8,0.3-2.4,0.9c-0.7,0.6-1,1.4-1,2.5s0.3,1.9,1,2.5C218.6,385.6,219.4,385.9,220.3,385.9z"/>
		<path fill="#BB0E3D" d="M234.8,388.1l-1-2.4h-4.7l-1,2.4h-2.7l4.9-11.3h2.4l4.9,11.3L234.8,388.1L234.8,388.1z M231.4,380.2
			l-1.4,3.3h2.8L231.4,380.2z"/>
		<path fill="#BB0E3D" d="M246.7,376.9h2.5v11.3h-2.5l-5.4-7.1v7.1h-2.5v-11.3h2.4l5.5,7.2V376.9z"/>
		<path fill="#BB0E3D" d="M257.1,385.9c1.2,0,2.2-0.5,3-1.5l1.6,1.7c-1.3,1.4-2.8,2.2-4.5,2.2c-1.7,0-3.2-0.5-4.3-1.6
			c-1.1-1.1-1.7-2.5-1.7-4.1c0-1.7,0.6-3.1,1.7-4.2c1.1-1.1,2.5-1.7,4.2-1.7c1.8,0,3.4,0.7,4.6,2.1l-1.6,1.8c-0.8-1-1.8-1.5-3-1.5
			c-0.9,0-1.8,0.3-2.4,0.9c-0.7,0.6-1,1.4-1,2.5s0.3,1.9,1,2.5C255.5,385.6,256.2,385.9,257.1,385.9z"/>
		<path fill="#BB0E3D" d="M271.9,376.9v2.2h-5.6v2.3h5v2.1h-5v2.3h5.8v2.2h-8.3v-11.3H271.9z"/>
		<path fill="#BB0E3D" d="M283.4,380.6c0,1.8-0.7,3-2.1,3.5l2.9,4H281l-2.5-3.6h-1.7v3.6h-2.5v-11.3h4.3c1.7,0,3,0.3,3.7,0.9
			C283.1,378.4,283.4,379.3,283.4,380.6z M280.4,381.9c0.3-0.3,0.5-0.7,0.5-1.3c0-0.6-0.2-1-0.5-1.2c-0.3-0.2-0.9-0.3-1.7-0.3h-1.9
			v3.3h1.8C279.5,382.4,280.1,382.2,280.4,381.9z"/>
		<path fill="#BB0E3D" d="M290.3,376.9h2.5v11.3h-2.5V376.9z"/>
		<path fill="#BB0E3D" d="M303.4,376.9h2.5v11.3h-2.5l-5.4-7.1v7.1h-2.5v-11.3h2.4l5.5,7.2V376.9z"/>
		<path fill="#BB0E3D" d="M311.3,379.1c-0.2,0.2-0.4,0.5-0.4,0.8s0.1,0.6,0.4,0.8c0.3,0.2,1,0.4,2,0.7c1.1,0.3,1.9,0.7,2.5,1.2
			c0.6,0.5,0.9,1.3,0.9,2.3c0,1-0.4,1.8-1.1,2.5s-1.8,0.9-3,0.9c-1.8,0-3.4-0.7-4.8-2l1.5-1.8c1.2,1.1,2.3,1.6,3.4,1.6
			c0.5,0,0.8-0.1,1.1-0.3c0.3-0.2,0.4-0.5,0.4-0.8s-0.1-0.6-0.4-0.8c-0.3-0.2-0.8-0.4-1.7-0.6c-1.3-0.3-2.3-0.7-2.9-1.2
			s-0.9-1.3-0.9-2.4c0-1.1,0.4-1.9,1.2-2.5c0.8-0.6,1.7-0.9,2.9-0.9c0.8,0,1.5,0.1,2.3,0.4c0.8,0.3,1.4,0.6,2,1.1l-1.3,1.8
			c-1-0.7-2-1.1-3-1.1C311.9,378.8,311.6,378.9,311.3,379.1z"/>
		<path fill="#BB0E3D" d="M323.6,379v9.1h-2.5V379h-3.2v-2.2h8.9v2.2H323.6z"/>
		<path fill="#BB0E3D" d="M328.7,376.9h2.5v11.3h-2.5V376.9z"/>
		<path fill="#BB0E3D" d="M338.7,379v9.1h-2.5V379H333v-2.2h8.9v2.2H338.7z"/>
		<path fill="#BB0E3D" d="M346.7,385.2c0.4,0.5,1,0.8,1.7,0.8c0.7,0,1.3-0.3,1.7-0.8c0.4-0.5,0.6-1.2,0.6-2.1v-6.2h2.5v6.3
			c0,1.6-0.4,2.9-1.4,3.8c-0.9,0.9-2.1,1.3-3.5,1.3c-1.4,0-2.6-0.4-3.5-1.3c-0.9-0.9-1.4-2.1-1.4-3.8v-6.3h2.5v6.2
			C346.1,384,346.3,384.7,346.7,385.2z"/>
		<path fill="#BB0E3D" d="M360.6,379v9.1h-2.5V379h-3.2v-2.2h8.9v2.2H360.6z"/>
		<path fill="#BB0E3D" d="M373.7,376.9v2.2h-5.6v2.3h5v2.1h-5v2.3h5.8v2.2h-8.3v-11.3H373.7z"/>
	</g>
</g>
<g>
	<path fill="#606060" d="M135.1,402.3c1.4,1.3,2.1,3.1,2.1,5.4c0,2.3-0.7,4.1-2.1,5.5c-1.4,1.3-3.5,2-6.3,2h-5.1v-14.8h5.2
		C131.7,400.4,133.7,401,135.1,402.3z M132.7,411.1c0.8-0.8,1.2-1.9,1.2-3.3c0-1.5-0.4-2.6-1.2-3.3c-0.8-0.8-2.1-1.2-3.7-1.2h-1.8v9
		h2.1C130.7,412.2,131.9,411.8,132.7,411.1z"/>
	<path fill="#606060" d="M139.9,402.3c-0.4-0.4-0.5-0.8-0.5-1.3s0.2-1,0.5-1.3c0.4-0.4,0.8-0.5,1.3-0.5c0.5,0,1,0.2,1.3,0.5
		c0.4,0.4,0.5,0.8,0.5,1.3s-0.2,1-0.5,1.3c-0.4,0.4-0.8,0.5-1.3,0.5C140.7,402.9,140.2,402.7,139.9,402.3z M142.8,415.1h-3.2v-11.4
		h3.2V415.1z"/>
	<path fill="#606060" d="M148.9,415.1l-4.5-11.4h3.3l2.8,7.2l2.8-7.2h3.3l-4.5,11.4H148.9z"/>
	<path fill="#606060" d="M158.4,402.3c-0.4-0.4-0.5-0.8-0.5-1.3s0.2-1,0.5-1.3c0.4-0.4,0.8-0.5,1.3-0.5s1,0.2,1.3,0.5
		c0.4,0.4,0.5,0.8,0.5,1.3s-0.2,1-0.5,1.3c-0.4,0.4-0.8,0.5-1.3,0.5S158.8,402.7,158.4,402.3z M161.4,415.1h-3.2v-11.4h3.2V415.1z"
		/>
	<path fill="#606060" d="M172.9,411.6c0,1.1-0.4,2-1.2,2.7s-1.9,1-3.1,1c-0.8,0-1.7-0.2-2.6-0.5c-0.9-0.3-1.7-0.8-2.5-1.3l1.4-2
		c1.2,0.9,2.4,1.4,3.8,1.4c0.4,0,0.7-0.1,1-0.2c0.2-0.2,0.4-0.4,0.4-0.6c0-0.3-0.2-0.5-0.5-0.7c-0.3-0.2-0.8-0.4-1.4-0.6
		s-1.1-0.4-1.4-0.5c-0.3-0.1-0.7-0.3-1.1-0.6c-0.9-0.5-1.3-1.3-1.3-2.4s0.4-1.9,1.3-2.6c0.8-0.7,1.9-1,3.3-1s2.7,0.5,4,1.4l-1.2,2.1
		c-1-0.7-2-1-2.9-1c-1,0-1.5,0.3-1.5,0.8c0,0.3,0.2,0.5,0.5,0.7c0.3,0.2,0.8,0.4,1.5,0.6c0.7,0.2,1.2,0.4,1.5,0.5
		c0.3,0.1,0.7,0.3,1.1,0.6C172.5,409.7,172.9,410.5,172.9,411.6z"/>
	<path fill="#606060" d="M175.6,402.3c-0.4-0.4-0.5-0.8-0.5-1.3s0.2-1,0.5-1.3c0.4-0.4,0.8-0.5,1.3-0.5c0.5,0,1,0.2,1.3,0.5
		c0.4,0.4,0.5,0.8,0.5,1.3s-0.2,1-0.5,1.3c-0.4,0.4-0.8,0.5-1.3,0.5C176.4,402.9,176,402.7,175.6,402.3z M178.5,415.1h-3.2v-11.4
		h3.2V415.1z"/>
	<path fill="#606060" d="M192.9,409.5c0,1.6-0.6,3-1.7,4.2s-2.6,1.7-4.3,1.7s-3.2-0.6-4.3-1.7c-1.1-1.1-1.7-2.5-1.7-4.2
		c0-1.6,0.6-3,1.7-4.2c1.1-1.1,2.6-1.7,4.3-1.7s3.2,0.6,4.3,1.7C192.3,406.4,192.9,407.8,192.9,409.5z M184.1,409.5
		c0,0.9,0.3,1.7,0.8,2.3c0.5,0.6,1.2,0.9,2,0.9s1.5-0.3,2-0.9c0.5-0.6,0.8-1.3,0.8-2.3c0-0.9-0.3-1.7-0.8-2.3
		c-0.5-0.6-1.2-0.9-2-0.9s-1.5,0.3-2,0.9C184.3,407.8,184.1,408.5,184.1,409.5z"/>
	<path fill="#606060" d="M198.4,408.8v6.3h-3.2v-11.4h3.2v1.3c1-1,2-1.5,3.2-1.5s2.2,0.4,3,1.3c0.8,0.8,1.2,2,1.2,3.4v6.9h-3.2v-6.4
		c0-1.7-0.6-2.6-1.9-2.6c-0.6,0-1.2,0.2-1.7,0.7C198.6,407.2,198.4,407.9,198.4,408.8z"/>
	<path fill="#606060" d="M225.7,409.5c0,1.6-0.6,3-1.7,4.2c-1.1,1.1-2.6,1.7-4.3,1.7s-3.2-0.6-4.3-1.7c-1.1-1.1-1.7-2.5-1.7-4.2
		c0-1.6,0.6-3,1.7-4.2c1.1-1.1,2.6-1.7,4.3-1.7s3.2,0.6,4.3,1.7C225.1,406.4,225.7,407.8,225.7,409.5z M216.9,409.5
		c0,0.9,0.3,1.7,0.8,2.3c0.5,0.6,1.2,0.9,2,0.9s1.5-0.3,2-0.9c0.5-0.6,0.8-1.3,0.8-2.3c0-0.9-0.3-1.7-0.8-2.3
		c-0.5-0.6-1.2-0.9-2-0.9s-1.5,0.3-2,0.9C217.1,407.8,216.9,408.5,216.9,409.5z"/>
	<path fill="#606060" d="M231.6,403.1v0.8h2.7v2.3h-2.7v9h-3.2v-9h-1.3v-2.3h1.3v-0.7c0-1.2,0.4-2.2,1.1-2.9
		c0.8-0.7,1.7-1.1,2.8-1.1s2.1,0.4,3.1,1.3l-1.1,2.1c-0.5-0.5-1-0.8-1.5-0.8c-0.3,0-0.6,0.1-0.8,0.3
		C231.7,402.3,231.6,402.7,231.6,403.1z"/>
	<path fill="#606060" d="M249,412.2c1.6,0,2.9-0.6,4-1.9l2.1,2.2c-1.7,1.9-3.7,2.8-5.9,2.8s-4.2-0.7-5.6-2.2
		c-1.5-1.4-2.2-3.3-2.2-5.4c0-2.2,0.8-4,2.3-5.5s3.3-2.2,5.5-2.2c2.4,0,4.5,0.9,6.1,2.8l-2.1,2.3c-1-1.3-2.3-1.9-3.9-1.9
		c-1.2,0-2.3,0.4-3.2,1.2c-0.9,0.8-1.3,1.9-1.3,3.3c0,1.4,0.4,2.5,1.2,3.3C246.8,411.8,247.8,412.2,249,412.2z"/>
	<path fill="#606060" d="M266.9,415.1h-3v-1.4c-0.8,1-1.8,1.5-3,1.5c-1.2,0-2.2-0.3-3-1c-0.8-0.7-1.2-1.6-1.2-2.8s0.4-2,1.3-2.6
		c0.8-0.6,2-0.9,3.5-0.9h2.4v-0.1c0-1.2-0.6-1.8-1.9-1.8c-0.5,0-1.1,0.1-1.7,0.3c-0.6,0.2-1.1,0.5-1.6,0.8l-1.4-2.1
		c1.5-1.1,3.2-1.6,5.1-1.6c1.4,0,2.5,0.3,3.4,1c0.9,0.7,1.3,1.8,1.3,3.3L266.9,415.1L266.9,415.1z M263.7,410.8v-0.5h-2
		c-1.3,0-1.9,0.4-1.9,1.2c0,0.4,0.2,0.7,0.5,0.9c0.3,0.2,0.7,0.3,1.3,0.3c0.6,0,1.1-0.2,1.5-0.5
		C263.5,411.9,263.7,411.4,263.7,410.8z"/>
	<path fill="#606060" d="M273,408.8v6.3h-3.2v-11.4h3.2v1.3c1-1,2-1.5,3.2-1.5c1.2,0,2.2,0.4,3,1.3c0.8,0.8,1.2,2,1.2,3.4v6.9h-3.2
		v-6.4c0-1.7-0.6-2.6-1.9-2.6c-0.6,0-1.2,0.2-1.7,0.7C273.2,407.2,273,407.9,273,408.8z"/>
	<path fill="#606060" d="M288.8,412.5c1.1,0,2-0.5,2.9-1.6l1.9,2.1c-1.5,1.5-3.1,2.3-4.8,2.3s-3.1-0.5-4.3-1.6
		c-1.2-1.1-1.8-2.5-1.8-4.2c0-1.7,0.6-3.2,1.8-4.2s2.6-1.6,4.2-1.6c0.8,0,1.6,0.2,2.5,0.5c0.8,0.3,1.6,0.8,2.2,1.5l-1.6,2.2
		c-0.4-0.4-0.8-0.8-1.3-1c-0.5-0.2-1.1-0.4-1.6-0.4c-0.8,0-1.5,0.3-2.1,0.8c-0.6,0.5-0.9,1.3-0.9,2.3s0.3,1.7,0.9,2.3
		C287.3,412.2,288,412.5,288.8,412.5z"/>
	<path fill="#606060" d="M305.5,413.5c-1.3,1.2-2.8,1.8-4.5,1.8c-1.7,0-3.2-0.5-4.3-1.6c-1.1-1.1-1.7-2.5-1.7-4.3
		c0-1.8,0.6-3.2,1.7-4.3s2.5-1.6,4.1-1.6s2.9,0.5,4,1.4c1.1,0.9,1.6,2.2,1.6,3.9v1.7h-8.3c0.1,0.6,0.4,1.1,1,1.5
		c0.5,0.4,1.2,0.6,1.9,0.6c1.1,0,2-0.4,2.7-1.1L305.5,413.5z M302.4,406.8c-0.4-0.4-1-0.5-1.6-0.5c-0.6,0-1.2,0.2-1.7,0.6
		c-0.5,0.4-0.8,0.9-0.9,1.5h5C303.1,407.6,302.9,407.1,302.4,406.8z"/>
	<path fill="#606060" d="M314.7,406.6c-0.9,0-1.6,0.3-2.1,1c-0.5,0.7-0.7,1.6-0.7,2.7v4.9h-3.2v-11.4h3.2v1.5
		c0.4-0.5,0.9-0.9,1.5-1.2c0.6-0.3,1.2-0.5,1.9-0.5l0,3L314.7,406.6L314.7,406.6z"/>
	<path fill="#606060" d="M333.9,400.4v2.9h-7.4v3h6.6v2.8h-6.6v3.1h7.6v2.9h-10.9v-14.8H333.9z"/>
	<path fill="#606060" d="M343.4,403.6c1.3,0,2.5,0.6,3.5,1.7c1,1.1,1.6,2.5,1.6,4.2c0,1.7-0.5,3.1-1.6,4.2c-1,1.1-2.2,1.7-3.6,1.7
		s-2.5-0.6-3.4-1.7v5.6h-3.2v-15.5h3.2v1.3C340.9,404.1,342.1,403.6,343.4,403.6z M339.9,409.5c0,0.9,0.3,1.7,0.8,2.3
		c0.5,0.6,1.1,0.9,1.9,0.9s1.4-0.3,1.9-0.9c0.5-0.6,0.8-1.3,0.8-2.3s-0.3-1.7-0.8-2.3c-0.5-0.6-1.2-0.9-1.9-0.9s-1.4,0.3-1.9,0.9
		C340.2,407.8,339.9,408.5,339.9,409.5z"/>
	<path fill="#606060" d="M351.1,402.3c-0.4-0.4-0.5-0.8-0.5-1.3s0.2-1,0.5-1.3c0.4-0.4,0.8-0.5,1.3-0.5c0.5,0,1,0.2,1.3,0.5
		c0.4,0.4,0.5,0.8,0.5,1.3s-0.2,1-0.5,1.3c-0.4,0.4-0.8,0.5-1.3,0.5C351.9,402.9,351.5,402.7,351.1,402.3z M354,415.1h-3.2v-11.4
		h3.2V415.1z"/>
	<path fill="#606060" d="M361.6,415.3c-1.3,0-2.5-0.6-3.6-1.7c-1.1-1.1-1.6-2.6-1.6-4.2s0.5-3.1,1.5-4.2c1-1.1,2.2-1.6,3.6-1.6
		s2.5,0.5,3.4,1.5v-5.6h3.2v15.7H365v-1.5C364.1,414.8,362.9,415.3,361.6,415.3z M359.6,409.5c0,0.9,0.3,1.7,0.8,2.3
		c0.5,0.6,1.2,0.9,1.9,0.9s1.4-0.3,1.9-0.9c0.5-0.6,0.8-1.3,0.8-2.3s-0.3-1.7-0.8-2.3c-0.5-0.6-1.1-0.9-1.9-0.9
		c-0.7,0-1.4,0.3-1.9,0.9C359.9,407.8,359.6,408.6,359.6,409.5z"/>
	<path fill="#606060" d="M381,413.5c-1.3,1.2-2.8,1.8-4.5,1.8c-1.7,0-3.2-0.5-4.3-1.6c-1.1-1.1-1.7-2.5-1.7-4.3
		c0-1.8,0.6-3.2,1.7-4.3c1.1-1.1,2.5-1.6,4.1-1.6s2.9,0.5,4,1.4c1.1,0.9,1.6,2.2,1.6,3.9v1.7h-8.3c0.1,0.6,0.4,1.1,1,1.5
		c0.5,0.4,1.2,0.6,1.9,0.6c1.1,0,2-0.4,2.7-1.1L381,413.5z M377.9,406.8c-0.4-0.4-1-0.5-1.6-0.5c-0.6,0-1.2,0.2-1.7,0.6
		c-0.5,0.4-0.8,0.9-0.9,1.5h5C378.6,407.6,378.4,407.1,377.9,406.8z"/>
	<path fill="#606060" d="M394.6,409v6.1h-3.2v-6.2c0-0.9-0.1-1.6-0.4-2c-0.3-0.4-0.7-0.6-1.3-0.6c-0.6,0-1.2,0.2-1.6,0.7
		c-0.5,0.5-0.7,1.1-0.7,2v6.1h-3.2v-11.4h3.2v1.3c0.9-1,1.9-1.5,3-1.5c0.7,0,1.4,0.2,2,0.6c0.6,0.4,1,0.9,1.3,1.5
		c0.4-0.7,1-1.2,1.8-1.6c0.7-0.4,1.5-0.6,2.2-0.6c1.3,0,2.4,0.4,3.2,1.2c0.8,0.8,1.2,1.9,1.2,3.5v6.9h-3.2v-6.2
		c0-1.7-0.6-2.6-1.9-2.6c-0.6,0-1.2,0.2-1.6,0.7C394.9,407.5,394.6,408.1,394.6,409z"/>
	<path fill="#606060" d="M405.2,402.3c-0.4-0.4-0.5-0.8-0.5-1.3s0.2-1,0.5-1.3c0.4-0.4,0.8-0.5,1.3-0.5c0.5,0,1,0.2,1.3,0.5
		c0.4,0.4,0.5,0.8,0.5,1.3s-0.2,1-0.5,1.3c-0.4,0.4-0.8,0.5-1.3,0.5C406,402.9,405.6,402.7,405.2,402.3z M408.1,415.1H405v-11.4h3.2
		V415.1z"/>
	<path fill="#606060" d="M422.5,409.5c0,1.6-0.6,3-1.7,4.2c-1.1,1.1-2.6,1.7-4.3,1.7c-1.7,0-3.2-0.6-4.3-1.7
		c-1.1-1.1-1.7-2.5-1.7-4.2c0-1.6,0.6-3,1.7-4.2c1.1-1.1,2.6-1.7,4.3-1.7c1.7,0,3.2,0.6,4.3,1.7
		C421.9,406.4,422.5,407.8,422.5,409.5z M413.7,409.5c0,0.9,0.3,1.7,0.8,2.3c0.5,0.6,1.2,0.9,2,0.9c0.8,0,1.5-0.3,2-0.9
		c0.5-0.6,0.8-1.3,0.8-2.3c0-0.9-0.3-1.7-0.8-2.3c-0.5-0.6-1.2-0.9-2-0.9c-0.8,0-1.5,0.3-2,0.9C413.9,407.8,413.7,408.5,413.7,409.5
		z"/>
	<path fill="#606060" d="M428,415.1h-3.2v-15.7h3.2V415.1z"/>
	<path fill="#606060" d="M442.4,409.5c0,1.6-0.6,3-1.7,4.2c-1.1,1.1-2.6,1.7-4.3,1.7c-1.7,0-3.2-0.6-4.3-1.7
		c-1.1-1.1-1.7-2.5-1.7-4.2c0-1.6,0.6-3,1.7-4.2c1.1-1.1,2.6-1.7,4.3-1.7c1.7,0,3.2,0.6,4.3,1.7
		C441.8,406.4,442.4,407.8,442.4,409.5z M433.6,409.5c0,0.9,0.3,1.7,0.8,2.3c0.5,0.6,1.2,0.9,2,0.9c0.8,0,1.5-0.3,2-0.9
		c0.5-0.6,0.8-1.3,0.8-2.3c0-0.9-0.3-1.7-0.8-2.3c-0.5-0.6-1.2-0.9-2-0.9c-0.8,0-1.5,0.3-2,0.9C433.8,407.8,433.6,408.5,433.6,409.5
		z"/>
	<path fill="#606060" d="M453.2,413.2c-1,1.1-2.2,1.7-3.7,1.7c-1.5,0-2.7-0.5-3.8-1.5c-1-1-1.5-2.4-1.5-4s0.5-3.1,1.6-4.1
		c1-1.1,2.3-1.6,3.6-1.6c1.4,0,2.5,0.6,3.4,1.7v-1.5h3.2v9.9c0,1-0.2,1.9-0.5,2.7c-0.4,0.8-0.8,1.4-1.4,1.9
		c-1.2,0.9-2.6,1.4-4.1,1.4c-0.8,0-1.7-0.1-2.6-0.4c-0.9-0.3-1.7-0.7-2.3-1.2l1.2-2.4c1,0.8,2.1,1.2,3.3,1.2s2.1-0.3,2.8-0.9
		C452.8,415.4,453.2,414.5,453.2,413.2z M452.7,409.2c0-0.9-0.3-1.6-0.8-2.1c-0.5-0.5-1.1-0.8-1.9-0.8c-0.7,0-1.4,0.3-1.9,0.8
		c-0.5,0.5-0.8,1.2-0.8,2.1c0,0.9,0.3,1.6,0.8,2.2c0.5,0.6,1.2,0.8,1.9,0.8s1.4-0.3,1.9-0.8C452.5,410.9,452.7,410.1,452.7,409.2z"
		/>
	<path fill="#606060" d="M460.8,419.6c-1.1,0-2.2-0.5-3.1-1.4l1.4-2.3c0.5,0.5,1.1,0.8,1.6,0.8c0.3,0,0.5-0.1,0.8-0.4
		c0.2-0.3,0.3-0.6,0.3-0.9c0-0.3-1.5-4.2-4.4-11.6h3.4l2.8,7.1l2.8-7.1h3.4l-5.3,13.4c-0.3,0.8-0.8,1.4-1.4,1.8
		C462.3,419.4,461.6,419.6,460.8,419.6z"/>
	<path fill="#606060" d="M485.8,413.9c-1.2,1-2.6,1.4-4.1,1.4c-1.6,0-2.8-0.4-3.8-1.2c-1-0.8-1.5-1.9-1.5-3.3c0-1.6,1-2.9,3.1-4.1
		c-0.5-0.6-0.8-1.1-1-1.5s-0.3-0.9-0.3-1.5c0-1.2,0.4-2.1,1.3-2.7c0.9-0.6,1.9-1,3.1-1c1.2,0,2.2,0.3,3,0.9c0.8,0.6,1.3,1.5,1.3,2.6
		c0,1.4-1,2.7-3,3.8c0.8,1,1.4,1.7,1.8,2.1c0.4-0.6,0.6-1.3,0.8-2l2.5,1.8c-0.3,0.9-0.7,1.7-1.2,2.5l2.1,2.1l-2.1,2L485.8,413.9z
		 M480.2,412.2c0.4,0.3,0.9,0.5,1.6,0.5c0.6,0,1.3-0.3,2.1-0.9c-1-1.1-1.9-2.1-2.7-3c-1.1,0.7-1.6,1.4-1.6,2.2
		C479.5,411.5,479.7,411.9,480.2,412.2z M482.5,402.5c-0.3,0-0.6,0.1-0.8,0.3c-0.2,0.2-0.4,0.5-0.4,0.9c0,0.4,0.3,0.9,0.8,1.6
		c1.1-0.6,1.6-1.1,1.6-1.6c0-0.4-0.1-0.7-0.4-0.9C483.1,402.6,482.9,402.5,482.5,402.5z"/>
	<path fill="#606060" d="M507.2,407.6h3.3v5.2c-1.5,1.6-3.5,2.5-6.1,2.5c-2.2,0-4-0.7-5.5-2.2c-1.5-1.4-2.2-3.3-2.2-5.4
		c0-2.2,0.8-4,2.3-5.5c1.5-1.5,3.3-2.2,5.4-2.2c2.1,0,4,0.7,5.5,2.1l-1.7,2.5c-0.7-0.6-1.3-1-1.8-1.2c-0.6-0.2-1.2-0.3-1.8-0.3
		c-1.3,0-2.3,0.4-3.2,1.3c-0.9,0.9-1.3,2-1.3,3.4s0.4,2.5,1.2,3.3c0.8,0.8,1.8,1.3,2.9,1.3c1.1,0,2.1-0.2,2.9-0.7L507.2,407.6
		L507.2,407.6z"/>
	<path fill="#606060" d="M523,413.5c-1.3,1.2-2.8,1.8-4.5,1.8c-1.7,0-3.2-0.5-4.3-1.6c-1.1-1.1-1.7-2.5-1.7-4.3
		c0-1.8,0.6-3.2,1.7-4.3c1.1-1.1,2.5-1.6,4.1-1.6c1.6,0,2.9,0.5,4,1.4c1.1,0.9,1.6,2.2,1.6,3.9v1.7h-8.3c0.1,0.6,0.4,1.1,1,1.5
		c0.6,0.4,1.2,0.6,1.9,0.6c1.1,0,2-0.4,2.7-1.1L523,413.5z M519.9,406.8c-0.4-0.4-1-0.5-1.6-0.5c-0.6,0-1.2,0.2-1.7,0.6
		c-0.5,0.4-0.8,0.9-0.9,1.5h5C520.6,407.6,520.4,407.1,519.9,406.8z"/>
	<path fill="#606060" d="M529.4,408.8v6.3h-3.2v-11.4h3.2v1.3c1-1,2-1.5,3.2-1.5c1.2,0,2.2,0.4,3,1.3c0.8,0.8,1.2,2,1.2,3.4v6.9
		h-3.2v-6.4c0-1.7-0.6-2.6-1.9-2.6c-0.6,0-1.2,0.2-1.7,0.7C529.6,407.2,529.4,407.9,529.4,408.8z"/>
	<path fill="#606060" d="M549.5,413.5c-1.3,1.2-2.8,1.8-4.5,1.8c-1.7,0-3.2-0.5-4.3-1.6c-1.1-1.1-1.7-2.5-1.7-4.3
		c0-1.8,0.6-3.2,1.7-4.3c1.1-1.1,2.5-1.6,4.1-1.6c1.6,0,2.9,0.5,4,1.4c1.1,0.9,1.6,2.2,1.6,3.9v1.7h-8.3c0.1,0.6,0.4,1.1,1,1.5
		c0.6,0.4,1.2,0.6,1.9,0.6c1.1,0,2-0.4,2.7-1.1L549.5,413.5z M546.5,406.8c-0.4-0.4-1-0.5-1.6-0.5c-0.6,0-1.2,0.2-1.7,0.6
		c-0.5,0.4-0.8,0.9-0.9,1.5h5C547.2,407.6,546.9,407.1,546.5,406.8z"/>
	<path fill="#606060" d="M556.4,406.1v5.1c0,0.4,0.1,0.8,0.3,1c0.2,0.2,0.5,0.4,0.8,0.4c0.6,0,1.1-0.3,1.5-0.8l1.2,2.2
		c-1,0.9-2,1.4-3.1,1.4c-1.1,0-2-0.4-2.8-1.1s-1.1-1.7-1.1-2.9v-5.2h-1.3v-2.3h1.3v-3.4h3.2v3.4h2.7v2.3H556.4z"/>
	<path fill="#606060" d="M562.2,402.3c-0.4-0.4-0.5-0.8-0.5-1.3s0.2-1,0.5-1.3c0.4-0.4,0.8-0.5,1.3-0.5c0.5,0,1,0.2,1.3,0.5
		c0.4,0.4,0.5,0.8,0.5,1.3s-0.2,1-0.5,1.3c-0.4,0.4-0.8,0.5-1.3,0.5C563,402.9,562.6,402.7,562.2,402.3z M565.1,415.1h-3.2v-11.4
		h3.2V415.1z"/>
	<path fill="#606060" d="M573.6,412.5c1.1,0,2-0.5,2.9-1.6l1.9,2.1c-1.5,1.5-3.1,2.3-4.8,2.3c-1.7,0-3.1-0.5-4.3-1.6
		c-1.2-1.1-1.8-2.5-1.8-4.2c0-1.7,0.6-3.2,1.8-4.2c1.2-1.1,2.6-1.6,4.2-1.6c0.8,0,1.6,0.2,2.5,0.5c0.8,0.3,1.6,0.8,2.2,1.5l-1.6,2.2
		c-0.4-0.4-0.8-0.8-1.3-1c-0.5-0.2-1.1-0.4-1.6-0.4c-0.8,0-1.5,0.3-2.1,0.8s-0.9,1.3-0.9,2.3s0.3,1.7,0.9,2.3
		C572.1,412.2,572.8,412.5,573.6,412.5z"/>
	<path fill="#606060" d="M589,411.6c0,1.1-0.4,2-1.2,2.7c-0.8,0.7-1.9,1-3.1,1c-0.8,0-1.7-0.2-2.6-0.5c-0.9-0.3-1.7-0.8-2.5-1.3
		l1.4-2c1.2,0.9,2.4,1.4,3.8,1.4c0.4,0,0.7-0.1,1-0.2c0.2-0.2,0.4-0.4,0.4-0.6c0-0.3-0.2-0.5-0.5-0.7c-0.3-0.2-0.8-0.4-1.4-0.6
		s-1.1-0.4-1.4-0.5c-0.3-0.1-0.7-0.3-1.1-0.6c-0.9-0.5-1.3-1.3-1.3-2.4s0.4-1.9,1.3-2.6c0.8-0.7,1.9-1,3.3-1s2.7,0.5,4,1.4l-1.2,2.1
		c-1-0.7-2-1-2.9-1c-1,0-1.5,0.3-1.5,0.8c0,0.3,0.2,0.5,0.5,0.7c0.3,0.2,0.8,0.4,1.5,0.6c0.7,0.2,1.2,0.4,1.5,0.5
		c0.3,0.1,0.7,0.3,1.1,0.6C588.6,409.7,589,410.5,589,411.6z"/>
</g>
</svg>
